<mxGraphModel dx="1422" dy="795" grid="1" gridSize="10" guides="1" tooltips="1" connect="1" arrows="1" fold="1" page="1" pageScale="1" pageWidth="850" pageHeight="1100" math="0" shadow="0">
  <root>
    <mxCell id="0" />
    <mxCell id="1" parent="0" />
    <mxCell id="4x8Yvbpx_Nvwn2mP5vuP-57" value="" style="edgeStyle=orthogonalEdgeStyle;rounded=0;orthogonalLoop=1;jettySize=auto;html=1;" edge="1" parent="1" source="4x8Yvbpx_Nvwn2mP5vuP-58" target="4x8Yvbpx_Nvwn2mP5vuP-60">
      <mxGeometry relative="1" as="geometry" />
    </mxCell>
    <mxCell id="4x8Yvbpx_Nvwn2mP5vuP-58" value="Начало&lt;br&gt;&lt;span style=&quot;background-color: rgb(255 , 255 , 255)&quot;&gt;Инициализация сервера&lt;/span&gt;" style="strokeWidth=2;html=1;shape=mxgraph.flowchart.terminator;whiteSpace=wrap;" vertex="1" parent="1">
      <mxGeometry x="110" y="40" width="160" height="80" as="geometry" />
    </mxCell>
    <mxCell id="4x8Yvbpx_Nvwn2mP5vuP-59" value="" style="edgeStyle=orthogonalEdgeStyle;rounded=0;orthogonalLoop=1;jettySize=auto;html=1;" edge="1" parent="1" source="4x8Yvbpx_Nvwn2mP5vuP-60" target="4x8Yvbpx_Nvwn2mP5vuP-62">
      <mxGeometry relative="1" as="geometry" />
    </mxCell>
    <mxCell id="4x8Yvbpx_Nvwn2mP5vuP-60" value="Инцициализация WSA" style="rounded=0;whiteSpace=wrap;html=1;" vertex="1" parent="1">
      <mxGeometry x="110" y="160" width="160" height="80" as="geometry" />
    </mxCell>
    <mxCell id="4x8Yvbpx_Nvwn2mP5vuP-61" value="" style="edgeStyle=orthogonalEdgeStyle;rounded=0;orthogonalLoop=1;jettySize=auto;html=1;" edge="1" parent="1" source="4x8Yvbpx_Nvwn2mP5vuP-62">
      <mxGeometry relative="1" as="geometry">
        <mxPoint x="190" y="390" as="targetPoint" />
      </mxGeometry>
    </mxCell>
    <mxCell id="4x8Yvbpx_Nvwn2mP5vuP-62" value="Получение структуры, содержащей IP-адрес сервера" style="rounded=0;whiteSpace=wrap;html=1;" vertex="1" parent="1">
      <mxGeometry x="110" y="280" width="160" height="80" as="geometry" />
    </mxCell>
    <mxCell id="4x8Yvbpx_Nvwn2mP5vuP-84" value="" style="edgeStyle=orthogonalEdgeStyle;rounded=0;orthogonalLoop=1;jettySize=auto;html=1;" edge="1" parent="1" source="4x8Yvbpx_Nvwn2mP5vuP-79" target="4x8Yvbpx_Nvwn2mP5vuP-80">
      <mxGeometry relative="1" as="geometry" />
    </mxCell>
    <mxCell id="4x8Yvbpx_Nvwn2mP5vuP-79" value="Создание сокета сервера" style="rounded=0;whiteSpace=wrap;html=1;" vertex="1" parent="1">
      <mxGeometry x="110" y="390" width="160" height="80" as="geometry" />
    </mxCell>
    <mxCell id="4x8Yvbpx_Nvwn2mP5vuP-85" value="" style="edgeStyle=orthogonalEdgeStyle;rounded=0;orthogonalLoop=1;jettySize=auto;html=1;" edge="1" parent="1" source="4x8Yvbpx_Nvwn2mP5vuP-80" target="4x8Yvbpx_Nvwn2mP5vuP-81">
      <mxGeometry relative="1" as="geometry" />
    </mxCell>
    <mxCell id="4x8Yvbpx_Nvwn2mP5vuP-80" value="Привязка сокета сервера" style="rounded=0;whiteSpace=wrap;html=1;" vertex="1" parent="1">
      <mxGeometry x="110" y="500" width="160" height="80" as="geometry" />
    </mxCell>
    <mxCell id="4x8Yvbpx_Nvwn2mP5vuP-86" value="" style="edgeStyle=orthogonalEdgeStyle;rounded=0;orthogonalLoop=1;jettySize=auto;html=1;" edge="1" parent="1" source="4x8Yvbpx_Nvwn2mP5vuP-81" target="4x8Yvbpx_Nvwn2mP5vuP-82">
      <mxGeometry relative="1" as="geometry" />
    </mxCell>
    <mxCell id="4x8Yvbpx_Nvwn2mP5vuP-81" value="Установка сокета сервера в режим прослушки входящих соединений" style="rounded=0;whiteSpace=wrap;html=1;" vertex="1" parent="1">
      <mxGeometry x="110" y="610" width="160" height="80" as="geometry" />
    </mxCell>
    <mxCell id="4x8Yvbpx_Nvwn2mP5vuP-87" value="" style="edgeStyle=orthogonalEdgeStyle;rounded=0;orthogonalLoop=1;jettySize=auto;html=1;" edge="1" parent="1" source="4x8Yvbpx_Nvwn2mP5vuP-82" target="4x8Yvbpx_Nvwn2mP5vuP-83">
      <mxGeometry relative="1" as="geometry" />
    </mxCell>
    <mxCell id="4x8Yvbpx_Nvwn2mP5vuP-82" value="Возврат созданного сокета" style="rounded=0;whiteSpace=wrap;html=1;" vertex="1" parent="1">
      <mxGeometry x="110" y="720" width="160" height="80" as="geometry" />
    </mxCell>
    <mxCell id="4x8Yvbpx_Nvwn2mP5vuP-83" value="Конец&lt;br&gt;&lt;span style=&quot;background-color: rgb(255 , 255 , 255)&quot;&gt;Инициализация сервера&lt;/span&gt;" style="strokeWidth=2;html=1;shape=mxgraph.flowchart.terminator;whiteSpace=wrap;" vertex="1" parent="1">
      <mxGeometry x="110" y="830" width="160" height="80" as="geometry" />
    </mxCell>
  </root>
</mxGraphModel>
